<svg width="36" height="34" viewBox="0 0 36 34" fill="none" xmlns="http://www.w3.org/2000/svg">
<path d="M1.48213 0.5H0.125V33.5H35.875V32.1759L1.5055 32.1071L1.48213 0.5ZM19.375 1.875C19.375 1.11463 18.759 0.5 18 0.5H13.875C13.1146 0.5 12.5 1.11463 12.5 1.875V29.375H19.375V1.875ZM11.125 10.125C11.125 9.366 10.509 8.75 9.75 8.75H5.625C4.86462 8.75 4.25 9.366 4.25 10.125V29.375H11.125V10.125ZM27.625 18.375C27.625 17.6146 27.009 17 26.25 17H22.125C21.3646 17 20.75 17.6146 20.75 18.375V29.375H27.625V18.375ZM34.5 25.25H30.375C29.6146 25.25 29 25.8646 29 26.625V29.375H35.875V26.625C35.875 25.8646 35.259 25.25 34.5 25.25Z" fill="#05074A"/>
</svg>
